<?xml version="1.0" standalone="no"?>
<!DOCTYPE svg PUBLIC "-//W3C//DTD SVG 20010904//EN"
 "http://www.w3.org/TR/2001/REC-SVG-20010904/DTD/svg10.dtd">
<svg version="1.0" xmlns="http://www.w3.org/2000/svg"
 width="500.000000pt" height="500.000000pt" viewBox="0 0 500.000000 500.000000"
 preserveAspectRatio="xMidYMid meet">
<metadata>
Created by potrace 1.14, written by Peter Selinger 2001-2017
</metadata>
<g transform="translate(0.000000,500.000000) scale(0.100000,-0.100000)"
fill="#000000" stroke="none">
<path d="M3358 3792 l-26 -3 1 -1202 2 -1202 238 -3 c130 -1 237 1 238 5 0 5
1 91 2 193 l2 185 30 31 c78 81 125 137 125 147 0 7 32 -21 70 -62 38 -41 67
-78 64 -82 -3 -5 -1 -9 5 -9 5 0 33 -30 62 -67 30 -38 56 -70 59 -73 3 -3 23
-27 45 -55 22 -27 43 -51 47 -53 5 -2 8 -10 8 -17 0 -7 3 -15 8 -17 4 -1 23
-23 42 -48 19 -25 42 -53 50 -62 13 -16 40 -18 292 -18 315 0 309 -2 241 74
-21 23 -51 58 -68 79 -16 21 -38 48 -49 60 -10 12 -37 49 -59 82 -22 33 -44
61 -49 63 -4 2 -8 9 -8 16 0 6 -9 18 -20 26 -11 8 -20 20 -20 26 0 7 -4 14 -8
16 -10 4 -84 87 -127 143 -16 21 -37 46 -45 54 -8 9 -26 32 -40 51 -13 19 -32
42 -42 51 -10 9 -15 19 -11 23 3 3 1 6 -5 6 -6 0 -21 17 -32 38 -24 45 -61 94
-77 105 -17 11 43 89 280 360 10 12 44 49 75 82 81 88 121 135 134 159 6 11
16 26 22 32 6 6 34 37 61 68 28 32 62 72 78 89 15 17 27 33 27 36 0 9 -574 7
-587 -2 -7 -5 -13 -14 -13 -22 0 -8 -10 -25 -22 -37 -13 -13 -45 -53 -72 -88
-27 -36 -54 -69 -60 -75 -6 -5 -27 -30 -46 -55 -46 -59 -59 -75 -93 -113 -15
-18 -42 -49 -60 -70 -18 -22 -40 -48 -49 -59 -10 -12 -18 -26 -18 -32 0 -6 -8
-19 -17 -28 -10 -9 -29 -31 -43 -49 -14 -18 -39 -48 -55 -67 l-31 -34 0 681
c-1 488 2 681 10 681 8 0 8 2 0 8 -6 4 -13 14 -16 22 -4 12 -38 15 -214 15
-115 0 -221 -1 -236 -3z"/>
<path d="M960 3163 c0 -4 -17 -8 -37 -8 -45 1 -196 -37 -238 -59 -16 -9 -36
-16 -42 -16 -7 0 -13 -4 -13 -9 0 -5 -17 -19 -37 -32 -21 -12 -48 -31 -60 -42
-26 -23 -25 -24 -28 58 -2 28 -3 55 -4 62 -1 9 -63 12 -236 13 l-235 1 -1 -23
c0 -31 -1 -1677 0 -1706 l1 -23 238 1 237 1 -2 252 c-1 139 -2 277 -3 307 0
30 2 140 5 244 6 268 13 322 51 401 23 50 93 139 94 120 0 -6 3 -6 8 1 4 6 32
24 62 41 47 27 63 31 115 29 105 -6 229 -55 278 -110 26 -30 54 -96 61 -145 3
-23 8 -46 11 -51 3 -5 1 -11 -5 -15 -6 -4 -7 -13 -2 -23 4 -9 8 -250 7 -534
l0 -518 242 0 241 0 1 523 c0 287 3 533 6 547 3 14 8 40 11 58 6 47 41 116 78
155 30 33 117 86 147 90 8 2 19 6 24 9 6 4 47 5 90 4 137 -5 263 -70 280 -143
2 -10 12 -38 21 -63 16 -40 18 -104 20 -600 1 -305 3 -561 3 -567 1 -10 56
-13 240 -13 l238 0 -2 597 c-2 336 -7 613 -12 633 -15 53 -17 61 -34 115 -7
22 -14 42 -14 45 -1 3 -19 41 -40 84 -37 76 -119 176 -145 176 -6 0 -8 6 -4
13 4 6 4 9 -1 5 -4 -4 -28 7 -54 25 -25 17 -47 30 -49 29 -6 -6 -52 11 -52 20
0 5 -4 7 -8 4 -4 -2 -41 2 -82 10 -61 11 -186 25 -235 26 -40 1 -142 -13 -205
-27 -117 -25 -236 -90 -318 -172 -18 -18 -36 -33 -39 -33 -3 0 -34 29 -69 64
-100 102 -212 145 -418 161 -38 3 -73 8 -77 11 -5 3 -9 2 -9 -3z"/>
</g>
</svg>
